classDiagram
class PresentationLayer {
    <<Interface>>
    +ServiceAPI
}
class BusinessLogicLayer {
    +User
    +place
    +Review
    +Amenity
}
class PersistenceLayer {
    +DatabaseAccess
}
PresentationLayer --> BusinessLogicLayer : Facade Pattern
BusinessLogicLayer --> PersistenceLayer : Database Operations
